<?xml version="1.0" encoding="UTF-8"?>
<svg id="Layer_1" data-name="Layer 1" xmlns="http://www.w3.org/2000/svg" viewBox="0 0 1920 1080">
  <defs>
    <style>
      .cls-1, .cls-2, .cls-3, .cls-4 {
        fill: #fff;
      }

      .cls-2 {
        stroke-width: 10px;
      }

      .cls-2, .cls-3, .cls-4 {
        stroke: #fff;
        stroke-miterlimit: 10;
      }

      .cls-3 {
        stroke-width: 6px;
      }

      .cls-5 {
        fill: #003148;
      }
    </style>
  </defs>
  <g>
    <path class="cls-3" d="M616.054,235.014c19.806,23.708,29.718,54.987,29.718,93.819,0,38.391-10.002,69.329-30.002,92.805-20.003,23.487-46.388,35.226-79.149,35.226h-118.867c-1.528,0-2.286.909-2.286,2.708v208.642c0,4.52-1.91,6.773-5.715,6.773h-18.858c-3.814,0-5.715-2.253-5.715-6.773V206.225c0-4.509,1.902-6.776,5.715-6.776h146.869c32.376,0,58.477,11.855,78.29,35.565ZM593.481,399.622c14.664-17.835,22.003-41.204,22.003-70.111,0-29.349-7.339-52.943-22.003-70.789-14.67-17.835-34.002-26.757-58.003-26.757h-117.724c-1.528,0-2.286.911-2.286,2.71v188.995c0,1.81.758,2.71,2.286,2.71h117.724c24.001,0,43.333-8.913,58.003-26.759Z"/>
    <path class="cls-4" d="M1233.642,450.875c-.906-12.822-2.934-24.401-6.076-34.756-7.653-27.434-22.046-49.262-43.186-65.458-21.154-16.196-47.02-24.292-77.605-24.292-13.849,0-26.621,1.973-38.372,5.822l.338-.511c-29.93,10.296-53.153,27.497-69.642,51.608-15.01,21.961-22.259,47.686-21.806,77.15l-.088.199v336.761c0,4.491,2.246,6.75,6.75,6.75h22.268c4.491,0,6.747-2.259,6.747-6.75v-164.659c0-1.349.337-2.13,1.015-2.361.675-.221,1.455.116,2.361,1.012,9.446,14.846,21.931,26.214,37.452,34.082,15.521,7.864,33.172,11.807,52.976,11.807,31.482,0,57.917-8.202,79.292-24.629,21.361-16.417,35.428-38.573,42.174-66.473,2.702-10.342,4.494-21.931,5.401-34.753.896-12.822,1.349-29.577,1.349-50.274s-.453-37.452-1.349-50.274ZM1197.199,552.435c-1.349,10.798-3.827,20.247-7.421,28.343l-2.699,7.425c-5.401,17.102-15.521,30.936-30.367,41.5-14.846,10.577-32.623,15.858-53.313,15.858-21.15,0-38.801-5.735-52.973-17.208-14.172-11.473-23.736-26.422-28.681-44.876-3.152-8.992-5.397-18.894-6.747-29.693-1.353-10.795-2.027-28.108-2.027-51.961s.675-41.166,2.027-51.961c1.349-10.798,3.595-20.247,6.747-28.343,4.944-18.441,14.509-33.625,28.681-45.551,14.172-11.916,31.822-17.882,52.973-17.882,22.04,0,40.934,5.851,56.687,17.545,15.743,11.705,25.866,26.994,30.367,45.888,3.142,9.003,5.397,18.789,6.747,29.355,1.349,10.573,2.024,27.563,2.024,50.949,0,22.943-.675,39.816-2.024,50.611Z"/>
    <path class="cls-4" d="M685.851,449.547c.906-12.822,2.934-24.401,6.076-34.756,7.653-27.434,22.046-49.262,43.186-65.458,21.154-16.196,47.02-24.292,77.605-24.292,13.849,0,26.621,1.973,38.372,5.822l-.338-.511c29.93,10.296,53.153,27.497,69.642,51.608,15.01,21.961,22.259,47.686,21.806,77.15l.088.199v205.561c0,4.491-2.246,6.75-6.75,6.75h-22.268c-4.491,0-6.747-2.259-6.747-6.75v-33.46c0-1.349-.337-2.13-1.015-2.361-.675-.221-1.455.116-2.361,1.012-9.446,14.846-21.931,26.214-37.452,34.082-15.521,7.864-33.172,11.807-52.976,11.807-31.482,0-57.917-8.202-79.292-24.629-21.361-16.417-35.428-38.573-42.174-66.473-2.702-10.342-4.494-21.931-5.401-34.753-.896-12.822-1.349-29.577-1.349-50.274s.453-37.452,1.349-50.274ZM722.293,551.106c1.349,10.798,3.827,20.247,7.421,28.343l2.699,7.425c5.401,17.102,15.521,30.936,30.367,41.5,14.846,10.577,32.623,15.858,53.313,15.858,21.15,0,38.801-5.735,52.973-17.208,14.172-11.473,23.736-26.422,28.681-44.876,3.152-8.992,5.397-18.894,6.747-29.693,1.353-10.795,2.027-28.108,2.027-51.961s-.675-41.166-2.027-51.961c-1.349-10.798-3.595-20.247-6.747-28.343-4.944-18.441-14.509-33.625-28.681-45.551-14.172-11.916-31.822-17.882-52.973-17.882-22.04,0-40.934,5.851-56.687,17.545-15.743,11.705-25.866,26.994-30.367,45.888-3.142,9.003-5.397,18.789-6.747,29.355-1.349,10.573-2.024,27.563-2.024,50.949,0,22.943.675,39.816,2.024,50.611Z"/>
    <path class="cls-4" d="M1490.867,483.604h-136.842c-3.418,0-6.183,2.784-6.159,6.202l.135,19.374c.024,3.416,2.812,6.162,6.229,6.116,65.477-.88,174.544-1.324,174.544-1.324,4.491,0,6.747-2.246,6.747-6.75,0-17.092-.232-31.379-.675-42.849-.453-11.473-1.349-21.481-2.699-30.03-5.397-33.744-19.126-60.166-41.166-79.292-22.046-19.119-51.518-28.681-88.4-28.681-32.391,0-59.723,8.549-81.994,25.641-22.268,17.106-37.009,39.816-44.202,68.16-2.256,9.446-3.711,19.801-4.385,31.042-.675,11.251-1.012,27.9-1.012,49.937,0,21.15.675,38.699,2.024,52.635,1.349,13.95,3.816,26.551,7.425,37.792,8.096,26.551,23.164,47.47,45.214,62.759,22.036,15.3,48.809,22.943,80.304,22.943,28.786,0,53.869-6.515,75.244-19.569,21.361-13.044,36.998-30.589,46.901-52.635,1.792-3.598.675-6.519-3.377-8.774l-17.545-8.771c-3.605-1.796-6.525-.675-8.771,3.373-8.553,17.102-20.363,30.483-35.431,40.15-15.078,9.681-33.182,14.509-54.322,14.509-26.551,0-48.482-6.409-65.795-19.232-17.324-12.822-28.459-30.252-33.403-52.298-2.259-9.449-3.377-28.565-3.377-57.361v-35.765c.896-26.541,2.467-44.086,4.726-52.639,4.491-21.14,14.846-38.126,31.042-50.949,16.196-12.822,36.44-19.232,60.735-19.232s44.757,6.641,61.41,19.906c16.639,13.276,27.434,30.705,32.391,52.298,2.032,10.181,3.149,24.962,3.343,44.346.049,4.921-3.936,8.967-8.858,8.967Z"/>
    <path class="cls-2" d="M1574.705,672.853c-.518-1.574-.258-3.488.776-5.75l110.694-226.694c.688-1.353.688-2.706,0-4.061l-110.694-226.691c-.695-1.799-1.034-3.152-1.034-4.061,0-2.706,1.373-4.061,4.137-4.061h19.14c2.409,0,4.476,1.587,6.207,4.738l97.762,201.655c.341.455.857.675,1.552.675.688,0,1.204-.221,1.552-.675l97.764-201.655c1.722-3.152,3.79-4.738,6.207-4.738h18.622c2.07,0,3.362.793,3.88,2.369.518,1.587.258,3.499-.776,5.753l-110.179,227.369c-.348,1.353-.348,2.706,0,4.061l110.179,226.016c.686,1.808,1.034,3.16,1.034,4.059,0,2.708-1.381,4.061-4.137,4.061h-18.622c-2.417,0-4.485-1.576-6.207-4.736l-97.764-200.979c-.348-.898-.863-1.353-1.552-1.353-.695,0-1.211.455-1.552,1.353l-97.762,200.979c-1.731,3.16-3.799,4.736-6.207,4.736h-19.14c-2.07,0-3.362-.782-3.88-2.369Z"/>
  </g>
  <g>
    <path class="cls-5" d="M294.103,800.565c111.426-87.899,238.888-181.951,350.979-268.803.323-.28.817.114.741.498,0,.114-.266.529-.447.851l-.57,1.007-2.281,4.047c-39.487,70.041-101.682,179.752-141.663,250.768-6.378,11.404-40,70.996-45.551,80.999-.048.104-.105.197-.162.301-10.333-11.736-20.266-23.866-30.057-36.141l-5.285-6.662c-.618-.757-1.217-1.525-1.768-2.345,1.759-.965,3.213-2.179,4.268-3.601,2.69-3.611,2.348-7.969-.827-10.843-.219-.197-.456-.374-.694-.55l25.276-32.79c7.785-10.096,15.57-20.203,23.356-30.299.342-.311.627-.685.856-1.11,3.707-4.804,7.414-9.619,11.122-14.434l4.097-5.302c.447.031.894.052,1.34.052,2.091,0,4.249-.363,6.283-1.079,2.88-1.027,5.209-2.656,6.721-4.701,2.681-3.611,2.348-7.969-.837-10.843-1.264-1.152-2.966-2.013-4.924-2.48-1.15-.27-2.376-.405-3.66-.425h-.095c-4.933,0-9.857,2.044-12.557,5.199-1.882,2.189-2.624,4.773-2.101,7.253.304,1.453,1.027,2.739,2.091,3.819l-3.289,4.275c-3.07,3.985-6.15,7.969-9.221,11.964-6.084-1.889-11.882-3.341-17.167,2.283-4.848,5.157-9.411,10.667-14.106,15.99-5.143,5.821-10.162,11.798-15.428,17.484-1.835,1.982-3.964,3.787-6.683,3.071-2.424-.623-4.933-2.355-7.215-3.445-7.785-3.725-15.57-7.44-23.346-11.165-6.245-2.988-12.414-5.25-19.439-4.306-4.449.591-7.167,3.58-10.941,6.599-6.245,4.991-12.49,9.982-18.736,14.973-11.407,9.121-22.814,18.242-34.23,27.352-.105-.042-.209-.073-.323-.125-2.776-1.328-5.551-2.625-8.289-3.829,1.625-1.1,3.213-2.283,4.762-3.507ZM527.544,647.958c2.662-2.76-1.369-7.16-4.03-4.4-6.683,6.942-13.356,13.884-20.038,20.826-4.458,4.638-8.916,9.277-13.384,13.915-2.747,2.854-5.599,6.672-9.477,7.523-6.416,1.422-12.576-1.38-18.574,2.791-2.11,1.473-4.011,3.518-5.913,5.271-9.125,8.384-18.241,16.768-27.367,25.153-5.532,5.084-11.065,10.169-16.606,15.253-5.352-.602-11.283,1.422-14.439,5.095-1.873,2.189-2.624,4.763-2.101,7.253.561,2.646,2.462,4.773,5.342,5.966.542.239,1.122.436,1.787.612,1.312.342,2.69.508,4.078.508,5.095,0,10.285-2.2,12.956-5.79,2.034-2.729,2.357-5.977.884-8.706-.542-.986-1.312-1.857-2.243-2.584,12.994-11.933,25.979-23.876,38.973-35.82,2.262-2.075,4.449-4.358,6.835-6.278,4.62-3.715,10.437-1.826,15.751-2.366,5.124-.508,8.565-3.673,12.063-7.315l11.407-11.86c8.032-8.343,16.065-16.696,24.097-25.049Z"/>
    <path class="cls-5" d="M321.393,722.648c21.768-12.846,264.791-156.322,314.848-185.874-12.291,8.778-27.348,20.078-37.766,27.591-84.392,62.238-191.758,139.107-275.171,202.798l-22.681,17.308c-6.483,5.157-16.711,11.85-21.863,18.553l-2.605,3.31c.019.01.029.01.038.021-.58.789-1.103,1.65-1.521,2.553-.523,1.162-3.279,7.056-3.869,8.343-4.049,8.81-8.07,17.63-11.977,26.522-3.089,6.973-6.084,14.008-9.03,21.064l-15.038-50.399-9.781-32.79c6.454-3.953,96.378-58.969,96.416-59.001Z"/>
    <path class="cls-5" d="M640.576,533.713c-38.726,20.628-310.656,176.888-321.91,183.57l-.171-.332-3.84,2.366c-1.112.228-2.215.259-3.317.239-4.591.021-16.492.114-21.245.145-54.211.27-115.893-.83-169.943-.197-1.312.021-2.662.021-4.021.031,151.036-53.729,370.494-131.812,511.692-182.055,4.078-1.39,10.181-3.736,14.848-5.219-.684.467-1.378.955-2.091,1.453Z"/>
    <path class="cls-1" d="M523.513,643.559c2.662-2.76,6.692,1.639,4.03,4.4-8.032,8.353-16.065,16.706-24.097,25.049l-11.407,11.86c-3.498,3.642-6.939,6.807-12.063,7.315-5.314.54-11.131-1.349-15.751,2.366-2.386,1.92-4.572,4.202-6.835,6.278-12.994,11.943-25.979,23.887-38.973,35.82.932.726,1.702,1.598,2.243,2.584,1.473,2.729,1.15,5.977-.884,8.706-2.671,3.59-7.861,5.79-12.956,5.79-1.388,0-2.766-.166-4.078-.508-.665-.176-1.245-.374-1.787-.612-2.88-1.193-4.781-3.32-5.342-5.966-.523-2.49.228-5.064,2.101-7.253,3.156-3.673,9.087-5.697,14.439-5.095,5.542-5.084,11.074-10.169,16.606-15.253,9.125-8.384,18.241-16.768,27.367-25.153,1.901-1.754,3.802-3.798,5.913-5.271,5.998-4.171,12.158-1.37,18.574-2.791,3.878-.851,6.73-4.669,9.477-7.523,4.468-4.638,8.926-9.277,13.384-13.915,6.683-6.942,13.356-13.884,20.038-20.826Z"/>
    <path class="cls-5" d="M460.3,745.601c-12.652,16.416-25.304,32.821-37.956,49.236-2.928,3.808-5.865,7.616-8.802,11.414-.333.446-.589.955-.77,1.484-4.924.01-9.838,2.044-12.538,5.199-1.873,2.189-2.624,4.773-2.101,7.253.561,2.656,2.462,4.784,5.39,6.008.646.259,1.207.446,1.73.571,1.274.332,2.652.498,4.049.498,1.901,0,3.859-.311,5.722-.913.932.955,1.749,2.023,2.529,3.123l5.029,6.89c3.375,4.586,6.654,9.245,9.971,13.873,3.27,4.669,6.549,9.339,9.762,14.06.96,1.411,1.911,2.822,2.871,4.244-.247-.104-.399-.166-.399-.166-44.373-18.397-93.184-39.244-138.774-57.185,7.766-6.205,15.532-12.41,23.289-18.615,10.19-8.146,20.143-17.401,30.875-24.675,4.924-3.341,11.673-.571,16.369,1.681,7.414,3.538,14.829,7.087,22.243,10.626,5.437,2.604,11.702,7.056,17.842,5.219,5.504-1.639,9.734-8.135,13.527-12.431,6.378-7.232,12.766-14.465,19.144-21.697,1.378-1.556,2.7-3.435,4.249-4.815,1.825-1.629,4.287-1.515,6.749-.882Z"/>
    <path class="cls-1" d="M309.939,722.212l-5.637.197c-59.23,1.889-124.81,6.008-183.973,7.772-2.89.073-5.846.208-8.812.291,33.108,14.403,98.546,42.865,108.384,47.14l90.038-55.4ZM642.667,532.261c-4.667,1.484-10.77,3.829-14.848,5.219-141.198,50.243-360.656,128.326-511.692,182.055,1.359-.01,2.709-.01,4.021-.031,54.049-.633,115.732.467,169.943.197,4.753-.031,16.654-.125,21.245-.145,1.103.021,2.205-.01,3.317-.239l3.84-2.366.171.332c11.255-6.682,283.184-162.942,321.91-183.57.713-.498,1.407-.986,2.091-1.453ZM627.658,536.92l8.66-2.988c2.833-.986,5.684-1.899,8.451-3.103.418-.208.951-.218,1.331.073.447.301.751.903.665,1.515-.038.291-.2.602-.276.737l-.276.508-.551,1.027-2.215,4.088c-2.624,4.835-10.475,19.456-13.251,24.571-50.494,93.554-117.262,217.564-168.032,311.076-1.036,2.272-2.776,4.026-4.819,5.074-.722.612-1.597.903-2.471.872-1.625.322-3.317.228-4.943-.405-42.795-17.225-89.848-36.338-133.66-54.559-21.169,16.467-42.833,33.236-64.449,48.956-.589.633-1.359,1.017-2.205,1.058-.086.01-.171.01-.266.01-1.407,0-2.719-1.027-3.165-2.594l-26.464-88.708c-.228-.031-.456-.083-.665-.176,0,0-127.719-55.556-128.412-55.857-.922-.249-1.721-.986-2.034-2.055-.266-.892-.133-1.806.276-2.553.029-.052.067-.104.095-.156.038-.062.067-.135.114-.197.361-.529.894-.944,1.578-1.11.067-.021.124-.031.19-.052,144.458-49.766,377.281-130.111,519.467-179.077l17.329-5.977ZM598.475,564.366c10.418-7.513,25.475-18.813,37.766-27.591-50.057,29.552-293.08,173.028-314.848,185.874-.038.031-89.962,55.047-96.416,59.001l9.781,32.79,15.038,50.399c2.947-7.056,5.941-14.091,9.03-21.064,3.907-8.893,7.928-17.713,11.977-26.522.589-1.287,3.346-7.181,3.869-8.343.418-.903.941-1.764,1.521-2.553-.01-.01-.019-.01-.038-.021l2.605-3.31c5.152-6.703,15.38-13.396,21.863-18.553l22.681-17.308c83.413-63.691,190.779-140.56,275.171-202.798ZM645.082,531.763c-112.091,86.851-239.553,180.903-350.979,268.803-1.549,1.224-3.137,2.407-4.762,3.507,2.738,1.204,5.513,2.501,8.289,3.829.114.052.219.083.323.125,11.416-9.111,22.823-18.231,34.23-27.352,6.245-4.991,12.49-9.982,18.736-14.973,3.774-3.02,6.492-6.008,10.941-6.599,7.025-.944,13.194,1.318,19.439,4.306,7.776,3.725,15.561,7.44,23.346,11.165,2.281,1.09,4.791,2.822,7.215,3.445,2.719.716,4.848-1.09,6.683-3.071,5.266-5.686,10.285-11.663,15.428-17.484,4.696-5.323,9.259-10.833,14.106-15.99,5.285-5.624,11.084-4.171,17.167-2.283,3.07-3.995,6.15-7.98,9.221-11.964l3.289-4.275c-1.065-1.079-1.787-2.366-2.091-3.819-.523-2.48.219-5.064,2.101-7.253,2.7-3.154,7.624-5.199,12.557-5.199h.095c1.283.021,2.51.156,3.66.425,1.958.467,3.66,1.328,4.924,2.48,3.184,2.874,3.517,7.232.837,10.843-1.511,2.044-3.84,3.673-6.721,4.701-2.034.716-4.192,1.079-6.283,1.079-.447,0-.894-.021-1.34-.052l-4.097,5.302c-3.707,4.815-7.414,9.629-11.122,14.434-.228.425-.513.799-.856,1.11-7.785,10.096-15.57,20.203-23.356,30.299l-25.276,32.79c.238.176.475.353.694.55,3.175,2.874,3.517,7.232.827,10.843-1.055,1.422-2.51,2.636-4.268,3.601.551.82,1.15,1.588,1.768,2.345l5.285,6.662c9.791,12.275,19.724,24.405,30.057,36.141.057-.104.114-.197.162-.301,5.551-10.003,39.173-69.595,45.551-80.999,39.981-71.017,102.177-180.727,141.663-250.768l2.281-4.047.57-1.007c.181-.322.447-.737.447-.851.076-.384-.418-.778-.741-.498ZM422.344,794.837c12.652-16.416,25.304-32.821,37.956-49.236-2.462-.633-4.924-.747-6.749.882-1.549,1.38-2.871,3.258-4.249,4.815-6.378,7.232-12.766,14.465-19.144,21.697-3.793,4.296-8.023,10.792-13.527,12.431-6.141,1.837-12.405-2.615-17.842-5.219-7.414-3.538-14.829-7.087-22.243-10.626-4.696-2.252-11.445-5.022-16.369-1.681-10.732,7.274-20.684,16.53-30.875,24.675-7.757,6.205-15.523,12.41-23.289,18.615,45.589,17.941,94.401,38.787,138.774,57.185,0,0,.152.062.399.166-.96-1.422-1.911-2.833-2.871-4.244-3.213-4.721-6.492-9.391-9.762-14.06-3.317-4.628-6.597-9.287-9.971-13.873l-5.029-6.89c-.779-1.1-1.597-2.169-2.529-3.123-1.863.602-3.821.913-5.722.913-1.397,0-2.776-.166-4.049-.498-.523-.125-1.084-.311-1.73-.571-2.928-1.224-4.829-3.352-5.39-6.008-.523-2.48.228-5.064,2.101-7.253,2.7-3.154,7.614-5.188,12.538-5.199.181-.529.437-1.038.77-1.484,2.937-3.798,5.875-7.606,8.802-11.414ZM312.876,823.995c-5.96-2.48-11.863-4.95-17.671-7.388-4.097-1.691-8.127-3.621-12.025-5.842-.618.56-1.141,1.245-1.492,2.044-7.586,16.613-15.38,33.153-23.546,49.444,18.099-13.095,36.217-25.537,54.734-38.258Z"/>
    <path class="cls-5" d="M309.939,722.212l-90.038,55.4c-9.838-4.275-75.276-32.738-108.384-47.14,2.966-.083,5.922-.218,8.812-.291,59.163-1.764,124.743-5.883,183.973-7.772l5.637-.197Z"/>
    <path class="cls-5" d="M295.205,816.607c5.808,2.438,11.711,4.908,17.671,7.388-18.517,12.722-36.635,25.163-54.734,38.258,8.165-16.291,15.96-32.831,23.546-49.444.352-.799.875-1.484,1.492-2.044,3.897,2.221,7.928,4.151,12.025,5.842Z"/>
  </g>
</svg>